<svg version="1.1" xmlns="http://www.w3.org/2000/svg" x="0px" y="0px" width="400px" height="400px" viewBox="0 0 400 400">
<g fill-rule="evenodd" clip-rule="evenodd">
	<path fill="#FBFAD9" d="M333.9,347.5c-0.8-13.2-3.9-27.7-9.4-43.5c-2.5-5.3-4.8-10.7-7-16.1c-8.6-21.4-14.5-43.4-17.8-65.9c-3.7-22.8-9.4-43.2-17.3-61.2c-3.5-22.3-12.3-42.6-26.4-60.9c-5.5-6.5-11.4-12.2-17.5-17.1c6.1,4.9,12,10.7,17.5,17.1c14.1,18.3,22.9,38.6,26.4,60.9c2.4,15.5,2.3,32-0.5,49.5c-1.3,6-3.1,11.7-5.4,16.9c-9.1,19.8-25.8,33.2-50,40.1c12-23.1,16-49.7,12.1-80c-2.4-21.9-7.3-40.8-14.8-56.9c-0.2-0.5-0.4-1-0.7-1.5c-1.1-2.4-2.4-4.7-3.6-7c-11.6-20.9-28-36.2-49.3-45.9c-14.9-5.7-24.4-4.5-28.6,3.5c0,5.8,7.1,8,21.6,6.8c20.6,3.8,39.9,17,57.9,39.7c0.5,1.4,1,2.9,1.5,4.3c0.4,1.1,0.7,2.3,1.1,3.4c4.8,17.1,4.2,33.9-2,50.3c-0.8,2.1-1.7,4.2-2.6,6.3c-6.8-30.8-17.1-54.1-30.9-69.9c5.9,31.4-3.5,57.2-28,77.4c-26.4-18.6-37.1-43.2-31.9-73.8c-12.8,23.3-17.6,48.1-14.4,74.3c-14.6-22.5-17.1-45.6-7.5-69.4c-26.7,45.1-29.3,93.8-7.6,146.3c-4.2-1.9-8.3-3.9-12.1-6c-39-22.4-50.3-62.9-33.8-121.3c17.8-45.5,42.6-68.2,74.5-68c-14.8-8-21.4-21-19.8-38.9c1.6-17.9,15.2-26.5,40.8-26c-14.1,7.5-22.6,18.6-25.5,33.3c-1.6,14.4,2.6,24.5,12.5,30.3c-1.3-11.3,7-17.8,24.9-19.4c30-2.1,56.1,5.8,78.3,23.7c31.5,6.9,53.5,25.7,65.8,56.5c2.4,5.9,4.5,12,6.3,18.2c5.4,18.1,8.7,37.4,9.9,57.9c3.5,30.3,9,54.5,16.6,72.6c0.1,0.1,0.1,0.2,0.2,0.3c14.4,30.5,14.5,57.4,0.4,80.9C337.2,361.6,335.9,354.4,333.9,347.5zC108.3,125.3,110.5,121.8,112.8,118.4z"/>
	<path fill="#D3D2B0" d="M230.7,288.8l-0.9-1.1c10.5-4.3,19.8-9.9,28-16.7c17.4,5.8,29.9,3.4,37.6-7.1c6.7-10.8,7.3-21.1,1.7-30.9c-5.8-8.8-12.7-10.7-20.6-5.8c2.3-5.2,4.1-10.8,5.4-16.9c2.8-17.5,2.9-33.9,0.5-49.5c7.8,18,13.6,38.4,17.3,61.2c3.3,22.5,9.3,44.5,17.8,65.9c2.2,5.4,4.5,10.8,7,16.1c5.5,15.8,8.6,30.3,9.4,43.5c-3.7-12.7-10-24.6-18.9-35.6c5.1,31.2-3.6,53.2-26,66c-3.5-13.5-8.8-27.4-15.7-41.8c17-2.9,19-10.4,6.1-22.6c18.1-7.4,26.7-15.3,25.9-23.9c-2.5-10.6-9.3-13-20.6-7.1c-13.9,7.4-30.5,10.2-49.8,8.5C233.6,290.1,232.2,289.4,230.7,288.8zM219.5,121.9c0.6,1.3,1.1,2.7,1.6,4c-18.1-22.7-37.4-35.9-57.9-39.7c-14.4,1.2-21.6-1.1-21.6-6.8c4.2-8,13.7-9.1,28.6-3.5C191.5,85.7,207.9,101,219.5,121.9z"/>
	<path fill="#FAE9D8" d="M276.6,227.1c7.9-4.9,14.7-3,20.6,5.8c5.6,9.8,5,20.1-1.7,30.9c-7.7,10.6-20.3,13-37.6,7.1c-8.2,6.8-17.5,12.4-28,16.7c-4.4,1.8-9,3.4-13.9,4.8c-1.9,0.5-3.9,1-5.8,1.5c-2.8,0.7-5.6,1.3-8.3,1.8c-9.6-14.4-19.5-22.3-29.9-24c-7.3-0.6-13.5,0.3-18.6,2.5c-1.3-0.3-2.8-0.6-4.3-0.7c-14-0.4-24.9,4.1-32.6,13.3c-1.3,3.2-2.6,6.3-3.9,9.4c-19.1-4.8-27.8-13.9-25.9-27.3c3.8,2.2,7.8,4.2,12.1,6c-21.7-52.5-19.1-101.3,7.6-146.3c-9.6,23.8-7.1,46.9,7.5,69.4c-3.2-26.2,1.6-51,14.4-74.3c-5.1,30.6,5.5,55.2,31.9,73.8c24.6-20.3,33.9-46.1,28-77.4c13.9,15.9,24.2,39.2,30.9,69.9c1-2.1,1.8-4.2,2.6-6.3c6.2-16.5,6.9-33.2,2-50.3c-0.3-1.1-0.7-2.3-1.1-3.4c-0.5-1.4-1-2.9-1.5-4.3c-0.5-1.3-1-2.7-1.6-4c1.3,2.3,2.5,4.6,3.6,7c0.2,0.5,0.5,1,0.7,1.5c7.5,16.1,12.4,35,14.8,56.9c3.9,30.2-0.1,56.9-12.1,80C250.8,260.3,267.5,246.9,276.6,227.1zM119,218.5l-14.5,1.5l-6.7,0.7c-1,4.7-0.2,9.1,2.2,13.3c4.8,5.7,12.7,7.2,23.9,4.5c6.7-1.9,11.5-4.9,14.5-9.2c2.1-4.8,2.1-9,0-12.7L119,218.5zM115.4,193.9c7.7,5.4,14.4,5.4,20.3,0C129.9,199.4,123.1,199.4,115.4,193.9zM175.1,306l4.1,14.6l-3.1-1.3l-2.8,1.9l-4.1-8l4.1,8l-7.5,5l0.9,11.7c-4-0.6-7.4-1.3-10.2-2.3l-0.6,1l-18-15.4l0.3-1.6l3.1-15.9c0.4,0,0.7,0,1.1,0c2.2,0,4.4-0.2,6.5-0.6l10.9,26.9l-3.3,5.6l3.3-5.6l-10.9-26.9c0.9-0.1,1.8-0.3,2.7-0.4l9.1,15.2L175.1,306zM210.7,214.4l-17.7-0.9l-5.6-0.3l-1-0.1c0,0.2-0.1,0.4-0.1,0.6c-0.3,1.4-0.4,2.8-0.4,4.1c0,0.1,0,0.1,0,0.2c0,1,0.1,2,0.2,2.9c0,0.1,0,0.2,0.1,0.3c0.1,0.7,0.3,1.3,0.4,2c0.2,0.6,0.3,1.1,0.6,1.7c0.2,0.6,0.5,1.2,0.8,1.8c3.2,5.9,9.5,9.1,18.8,9.8c9.9-0.2,17.7-3.8,23.2-10.7c1.1-1.8,1.7-4.8,1.8-9L210.7,214.4zM234.9,290.9c10.5,5.5,19.7,14.2,27.7,26.1c1,1.5,2,3.1,3,4.7c-2.2,2.1-5.2,3.9-8.8,5.6c-1.1,2.5-2.2,5-3.3,7.4c-1.4-1.5-2.9-3-4.4-4.4c-8.7-8.2-18.7-14.2-30-17.9l6.8-14.1l-6.8,14.1l-3.7,7.9c-1.9-4-3.9-7.8-5.8-11.3l21-20.3C232.2,289.4,233.6,290.1,234.9,290.9zM179.4,189.8c9.3,5.3,16.7,5.3,22.2,0C196.1,195.1,188.7,195.1,179.4,189.8zM259.1,322.4c-0.7,1.7-1.4,3.3-2.2,5C257.6,325.7,258.3,324.1,259.1,322.4zM148.7,266.4c7.9,8.1,20.4,5.2,37.4-8.7C169.1,271.6,156.6,274.6,148.7,266.4z"/>
	<path fill="#2F83C6" d="M172.5,344.9c-8.8-0.7-15.2-2.1-19.1-4.1c0,0,0-0.1-0.1-0.2l-5.6,9.3l-13.4-10.4l3.6-18.4l18,15.4l0.6-1c2.8,1,6.2,1.8,10.2,2.3l0.2,3.1l6.1,2.5C172.8,344,172.7,344.4,172.5,344.9c0.2-0.5,0.3-0.9,0.5-1.4l4.2,1.7C175.6,345.1,174,345,172.5,344.9zM209.7,309c-1.2-2.2-2.4-4.3-3.6-6.4l9.9-10.2c4.8-1.4,9.4-3,13.9-4.8l0.9,1.1L209.7,309zM158.4,303.5l3.1,4.7l4.5-4.1c2.6,0.1,5.5,0,8.5-0.3l0.6,2.1l-14.5,11.8l-9.1-15.2c0.8-0.2,1.6-0.4,2.3-0.6c1.2,0.5,2.4,1,3.7,1.4C157.9,303.4,158.2,303.5,158.4,303.5zM153.3,340.7l2.5-4.1L153.3,340.7zM269,327.8c-3.1,3.2-8.5,6.1-16.3,8.8c0.3-0.6,0.6-1.1,0.8-1.7c-0.3,0.6-0.6,1.2-0.8,1.7c-2.1,4.5-4.1,8.7-6.1,12.7c-2.9-3.2-6.1-6-9.3-8.5c-2.8-2.1-5.8-4-8.9-5.6c-2.6-1.3-5.2-2.4-7.9-3.4c-1.6-4-3.3-7.8-5-11.4l3.7-7.9c11.3,3.8,21.3,9.7,30,17.9c1.5,1.4,2.9,2.9,4.4,4.4c1.1-2.4,2.2-4.9,3.3-7.4c3.6-1.7,6.5-3.6,8.8-5.6C266.8,323.7,268,325.7,269,327.8zM185.2,342l1,3.5c-0.6,0-1.2,0-1.8-0.1c-1.8,0-3.5-0.1-5.1-0.1l4.5-2.5L185.2,342zM184.4,345.5c-0.2-0.9-0.4-1.8-0.7-2.6C183.9,343.7,184.2,344.5,184.4,345.5z"/>
	<path fill="#FFFFFF" d="M183.6,322.5l4.2-10.8L183.6,322.5l-4.4-1.8l-4.1-14.6l1.7-1.4l23.5,13.5l-23.5-13.5l-1.7,1.4l-0.6-2.1c-3,0.2-5.8,0.3-8.5,0.3l-4.5,4.1l-3.1-4.7c2.3,0.4,4.9,0.6,7.6,0.6c-2.7,0-5.3-0.2-7.6-0.6c-0.3,0-0.5-0.1-0.8-0.1c-1.3-0.4-2.6-0.9-3.7-1.4c0.1,0,0.2,0,0.3-0.1c10.1-1.9,14.2-7.7,12.5-17.2c-3-5.5-7.4-9-13.4-10.4c5.9,1.4,10.4,4.9,13.4,10.4c1.7,9.5-2.5,15.3-12.5,17.2c-0.1,0-0.2,0-0.3,0.1c-0.8,0.2-1.5,0.4-2.3,0.6c-0.9,0.2-1.8,0.3-2.7,0.4c-2.1,0.4-4.3,0.6-6.5,0.6c-0.4,0-0.7,0-1.1,0l-3.1,15.9l-4,20.8l0.2-0.8l13.4,10.4l-12.1,20c-0.7,1.1-1.3,2.2-2,3.2c-7.1,10.2-16.1,14.3-27.1,12.2c-11.9-4.2-17.2-13.4-15.9-27.5c5.6-19,12.9-39.5,21.9-61.5c1.3-3.1,2.6-6.3,3.9-9.4c7.7-9.2,18.6-13.7,32.6-13.3c1.5,0.1,3,0.3,4.3,0.7c5.1-2.2,11.3-3,18.6-2.5c10.3,1.6,20.3,9.6,29.9,24c2.8-0.6,5.5-1.2,8.3-1.8c2-0.5,3.9-1,5.8-1.5l-9.9,10.2c-1.3-2.2-2.6-4.4-4-6.4c-0.1-0.1-0.2-0.3-0.3-0.4c0.1,0.1,0.2,0.3,0.3,0.4c1.3,2,2.6,4.2,4,6.4c1.2,2,2.4,4.2,3.6,6.4c1.9,3.6,3.9,7.3,5.8,11.3c1.7,3.6,3.4,7.4,5,11.4c0.6,1.4,1.2,2.8,1.8,4.2c0.9,2.3,1.8,4.6,2.7,6.9c1.2,3.1,2.4,6.3,3.6,9.6c-1.2-3.3-2.4-6.5-3.6-9.6c-0.9-2.3-1.8-4.7-2.7-6.9c-0.6-1.4-1.2-2.8-1.8-4.2c2.7,0.9,5.4,2,7.9,3.4c3.1,1.6,6,3.4,8.9,5.6c3.3,2.4,6.4,5.3,9.3,8.5c2-4,4-8.2,6.1-12.7c7.7-2.7,13.2-5.6,16.3-8.8c-1-2.1-2.2-4.1-3.3-6c-1-1.6-2-3.2-3-4.7c-8-11.9-17.2-20.6-27.7-26.1c19.4,1.7,36-1.1,49.8-8.5c11.2-5.9,18.1-3.5,20.6,7.1c0.8,8.6-7.8,16.5-25.9,23.9c12.9,12.1,10.8,19.7-6.1,22.6c7,14.4,12.2,28.4,15.7,41.8c0.7,2.5,1.2,5,1.8,7.5H159.4c-0.4-14-2.4-28.9-6-44.6c3.9,2,10.3,3.4,19.1,4.1c1.5,0.1,3.1,0.2,4.7,0.3l1.3,0.5l0.7-0.4c1.7,0.1,3.4,0.1,5.1,0.1c2.1,8.8,3.4,21.3,4.1,37.6c-0.7-16.3-2-28.8-4.1-37.6c0.6,0,1.2,0.1,1.8,0.1l4.8,17c3.3,11.8,8.8,19,16.4,21.5c7.6,2.5,15.2,0.8,22.7-5.1c5.1-7.6,10.6-17.5,16.5-29.6c-6,12.1-11.5,22-16.5,29.6c-7.5,6-15.1,7.7-22.7,5.1c-7.6-2.5-13.1-9.6-16.4-21.5l-4.8-17l-1-3.5l4.7-2.6l-1.2-14.7L183.6,322.5zM138.4,229.2c-3,4.2-7.8,7.3-14.5,9.2c-11.2,2.8-19.1,1.3-23.9-4.5c-2.5-4.1-3.2-8.6-2.2-13.3l6.7-0.7c0,6,2.6,9,7.9,9c5.6-0.7,7.8-4.2,6.6-10.5l19.4-2C140.5,220.2,140.5,224.5,138.4,229.2zM141.2,303.6c-3.3-0.1-6.7-0.6-10.4-1.4C134.5,303,137.9,303.5,141.2,303.6zM134.1,340.4l-5.3,27.5L134.1,340.4zM230.1,225.8c-5.6,6.9-13.3,10.5-23.2,10.7c-9.4-0.7-15.6-4-18.8-9.8c-0.3-0.6-0.6-1.2-0.8-1.8c-0.2-0.6-0.4-1.1-0.6-1.7c-0.2-0.6-0.3-1.3-0.4-2c0-0.1,0-0.2-0.1-0.3c-0.1-1-0.2-1.9-0.2-2.9c0-0.1,0-0.2,0-0.2c0-1.3,0.1-2.7,0.4-4.1c0-0.2,0.1-0.4,0.1-0.6l1,0.1l5.6,0.3c-0.2,5.5,2.1,8.7,6.9,9.5c6.2,0.4,9.7-2.5,10.7-8.5l21.2,2.3C231.8,221,231.2,224,230.1,225.8zM172.5,344.9c-3.2,9.1-6.5,20.7-9.8,34.9C166,365.6,169.3,354,172.5,344.9zM269,327.8c0.4,0.8,0.7,1.5,1.1,2.1c1.1,2.1,2.2,4.1,3.1,6.1c-1-2-2-4.1-3.1-6.1C269.7,329.2,269.4,328.5,269,327.8z"/>
	<path fill="#F4B81B" d="M104.5,220l14.5-1.5c1.2,6.3-1,9.8-6.6,10.5C107.1,228.9,104.5,225.9,104.5,220zM177.2,345.2l-4.2-1.7l-6.1-2.5l-0.2-3.1l-0.9-11.7l7.5-5l2.8-1.9l3.1,1.3l4.4,1.8l5.1,2.2l1.2,14.7l-4.7,2.6l-1.5,0.8l-4.5,2.5l-0.7,0.4L177.2,345.2zM193,213.5l17.7,0.9c-1,6.1-4.6,8.9-10.7,8.5C195.1,222.2,192.8,219,193,213.5z"/>

	<path fill="none" stroke="#2A2B2B" stroke-width="6.7023" stroke-linecap="round" stroke-linejoin="round" stroke-miterlimit="3" d="M86.6,269.1c-39-22.4-50.3-62.9-33.8-121.3c17.8-45.5,42.6-68.2,74.5-68c-14.8-8-21.4-21-19.8-38.9c1.6-17.9,15.2-26.5,40.8-26c-14.1,7.5-22.6,18.6-25.5,33.3c-1.6,14.4,2.6,24.5,12.5,30.3c-1.3-11.3,7-17.8,24.9-19.4c30-2.1,56.1,5.8,78.3,23.7c31.5,6.9,53.5,25.7,65.8,56.5c2.4,5.9,4.5,12,6.3,18.2c5.4,18.1,8.7,37.4,9.9,57.9c3.5,30.3,9,54.5,16.6,72.6c0.1,0.1,0.1,0.2,0.2,0.3c14.4,30.5,14.5,57.4,0.4,80.9c-0.5-7.5-1.8-14.7-3.8-21.6c-3.7-12.7-10-24.6-18.9-35.6c5.1,31.2-3.6,53.2-26,66c0.7,2.5,1.2,5,1.8,7.5H159.4c-0.4-14-2.4-28.9-6-44.6c0,0,0-0.1-0.1-0.2l-5.6,9.3l-12.1,20c-0.7,1.1-1.3,2.2-2,3.2c-7.1,10.2-16.1,14.3-27.1,12.2c-11.9-4.2-17.2-13.4-15.9-27.5c5.6-19,12.9-39.5,21.9-61.5C93.4,291.6,84.7,282.5,86.6,269.1c3.8,2.2,7.8,4.2,12.1,6c-21.7-52.5-19.1-101.3,7.6-146.3c-9.6,23.8-7.1,46.9,7.5,69.4c-3.2-26.2,1.6-51,14.4-74.3c-5.1,30.6,5.5,55.2,31.9,73.8c24.6-20.3,33.9-46.1,28-77.4c13.9,15.9,24.2,39.2,30.9,69.9c1-2.1,1.8-4.2,2.6-6.3c6.2-16.5,6.9-33.2,2-50.3c-0.3-1.1-0.7-2.3-1.1-3.4c-0.5-1.4-1-2.9-1.5-4.3c-0.5-1.3-1-2.7-1.6-4c1.3,2.3,2.5,4.6,3.6,7c0.2,0.5,0.5,1,0.7,1.5c7.5,16.1,12.4,35,14.8,56.9c3.9,30.2-0.1,56.9-12.1,80c24.3-6.9,41-20.3,50-40.1c2.3-5.2,4.1-10.8,5.4-16.9c2.8-17.5,2.9-33.9,0.5-49.5c-3.5-22.3-12.3-42.6-26.4-60.9c-5.5-6.5-11.4-12.2-17.5-17.1M141.7,79.4c4.2-8,13.7-9.1,28.6-3.5c21.2,9.8,37.6,25.1,49.3,45.9M112.8,118.4c-2.3,3.4-4.5,6.9-6.6,10.4M138.4,216.5l-19.4,2c1.2,6.3-1,9.8-6.6,10.5c-5.3-0.1-7.9-3.1-7.9-9l-6.7,0.7M100,233.9c4.8,5.7,12.7,7.2,23.9,4.5c6.7-1.9,11.5-4.9,14.5-9.2M115.4,193.9c7.7,5.4,14.4,5.4,20.3,0M112.5,296.4c1.3-3.1,2.6-6.3,3.9-9.4c7.7-9.2,18.6-13.7,32.6-13.3c1.5,0.1,3,0.3,4.3,0.7c5.1-2.2,11.3-3,18.6-2.5c10.3,1.6,20.3,9.6,29.9,24c2.8-0.6,5.5-1.2,8.3-1.8c2-0.5,3.9-1,5.8-1.5c4.8-1.4,9.4-3,13.9-4.8c10.5-4.3,19.8-9.9,28-16.7c17.4,5.8,29.9,3.4,37.6-7.1c6.7-10.8,7.3-21.1,1.7-30.9c-5.8-8.8-12.7-10.7-20.6-5.8M104.5,220l14.5-1.5M153.3,274.4c5.9,1.4,10.4,4.9,13.4,10.4c1.7,9.5-2.5,15.3-12.5,17.2c-0.1,0-0.2,0-0.3,0.1c1.2,0.5,2.4,1,3.7,1.4c0.3,0,0.5,0.1,0.8,0.1c2.3,0.4,4.9,0.6,7.6,0.6c2.6,0.1,5.5,0,8.5-0.3l0.6,2.1l1.7-1.4l23.5,13.5M153.9,302c-0.8,0.2-1.5,0.4-2.3,0.6l9.1,15.2l14.5-11.8M151.5,302.6c-0.9,0.2-1.8,0.3-2.7,0.4l10.9,26.9l-3.3,5.6M148.8,303.1c-2.1,0.4-4.3,0.6-6.5,0.6c-0.4,0-0.7,0-1.1,0l-3.1,15.9l-4,20.8l-5.3,27.5M155.8,336.6l0.6-1M153.3,340.7l2.5-4.1M141.2,303.6c-3.3-0.1-6.7-0.6-10.4-1.4M234.9,290.9c19.4,1.7,36-1.1,49.8-8.5c11.2-5.9,18.1-3.5,20.6,7.1c0.8,8.6-7.8,16.5-25.9,23.9c12.9,12.1,10.8,19.7-6.1,22.6c7,14.4,12.2,28.4,15.7,41.8M231.9,216.7l-21.2-2.3c-1,6.1-4.6,8.9-10.7,8.5c-4.8-0.8-7.2-4-6.9-9.5l-5.6-0.3M188.1,226.7c3.2,5.9,9.5,9.1,18.8,9.8c9.9-0.2,17.7-3.8,23.2-10.7M234.9,290.9c-1.3-0.8-2.8-1.5-4.2-2.1l-21,20.3c1.9,3.6,3.9,7.3,5.8,11.3l3.7-7.9l6.8-14.1M230.7,288.8l-0.9-1.1M179.4,189.8c9.3,5.3,16.7,5.3,22.2,0M193,213.5l17.7,0.9M201.8,295.9c0.1,0.1,0.2,0.3,0.3,0.4c1.3,2,2.6,4.2,4,6.4c1.2,2,2.4,4.2,3.6,6.4M220.5,331.8c0.6,1.4,1.2,2.8,1.8,4.2c0.9,2.3,1.8,4.6,2.7,6.9c1.2,3.1,2.4,6.3,3.6,9.6M215.5,320.4c1.7,3.6,3.4,7.4,5,11.4M246.7,349.2c2-4,4-8.2,6.1-12.7c0.3-0.6,0.6-1.1,0.8-1.7M179.2,320.6l-4.1-14.6M185.2,342l1,3.5l4.8,17c3.3,11.8,8.8,19,16.4,21.5c7.6,2.5,15.2,0.8,22.7-5.1c5.1-7.6,10.6-17.5,16.5-29.6M269,327.8c-1-2.1-2.2-4.1-3.3-6c-1-1.6-2-3.2-3-4.7c-8-11.9-17.2-20.6-27.7-26.1M256.9,327.4c-1.1,2.5-2.2,5-3.3,7.4M259.1,322.4c-0.7,1.7-1.4,3.3-2.2,5M269,327.8c0.4,0.8,0.7,1.5,1.1,2.1c1.1,2.1,2.2,4.1,3.1,6.1M148.7,266.4c7.9,8.1,20.4,5.2,37.4-8.7"/>

	<path fill="none" stroke="#2F83C6" stroke-width="6.7023" stroke-linecap="round" stroke-linejoin="round" stroke-miterlimit="3" d="M173.3,321.2l-4.1-8M173,343.5c-0.2,0.5-0.3,0.9-0.5,1.4c-3.2,9.1-6.5,20.7-9.8,34.9M183.6,322.5l4.2-10.8M184.4,345.5c-0.2-0.9-0.4-1.8-0.7-2.6M184.4,345.5c2.1,8.8,3.4,21.3,4.1,37.6"/>

	<path fill="#FFFBDA" d="M333.9,347.5c-0.8-13.2-3.9-27.7-9.4-43.5c-2.5-5.3-4.8-10.7-7-16.1c-8.6-21.4-14.5-43.4-17.8-65.9c-3.9-24.2-10.1-45.7-18.8-64.6c-5-10.9-10.8-20.8-17.3-29.9L224.5,113l1.3-32.3c38.4,4.2,64.6,23.8,78.5,58.5c2.4,5.9,4.5,12,6.3,18.2c5.4,18.1,8.7,37.4,9.9,57.9c3.5,30.3,9,54.5,16.6,72.6c0.1,0.1,0.1,0.2,0.2,0.3c14.4,30.5,14.5,57.4,0.4,80.9C337.2,361.6,335.9,354.4,333.9,347.5z"/>
	<path fill="#C9C59D" d="M224.5,113l39.2,14.5c6.6,9.1,12.3,19.1,17.3,29.9c8.6,18.8,14.9,40.4,18.8,64.6c3.3,22.5,9.3,44.5,17.8,65.9c2.2,5.4,4.5,10.8,7,16.1c5.5,15.8,8.6,30.3,9.4,43.5c-3.7-12.7-10-24.6-18.9-35.6c5.5,33.9-5.2,56.9-32.1,69l-66-74.5L224.5,113z"/>

	<path fill="none" stroke="#2A2B2B" stroke-width="2.2341" stroke-linecap="round" stroke-linejoin="round" stroke-miterlimit="3" d="M224.5,113l1.3-32.3c38.4,4.2,64.6,23.8,78.5,58.5c2.4,5.9,4.5,12,6.3,18.2c5.4,18.1,8.7,37.4,9.9,57.9c3.5,30.3,9,54.5,16.6,72.6c0.1,0.1,0.1,0.2,0.2,0.3c14.4,30.5,14.5,57.4,0.4,80.9c-0.5-7.5-1.8-14.7-3.8-21.6c-3.7-12.7-10-24.6-18.9-35.6c5.5,33.9-5.2,56.9-32.1,69l-66-74.5L224.5,113z"/>

	<polygon fill="#0094D7" points="137.9,321.2 155.8,336.6 147.7,350 134.3,339.6"/>
	<path fill="#FCEDE4" d="M148.8,303.1l10.9,26.9l-3.9,6.6l-18-15.4l3.4-17.5C143.8,303.7,146.4,303.5,148.8,303.1z"/>
	<path fill="#FFFFFF" d="M133.6,373.2l-4.8-5.3l5.5-28.3l13.4,10.4l-12.1,20C135,371.1,134.3,372.2,133.6,373.2z"/>

	<path fill="none" stroke="#2A2B2B" stroke-width="2.2341" stroke-linecap="round" stroke-linejoin="round" stroke-miterlimit="3" d="M147.7,350l8.2-13.4l3.9-6.6l-10.9-26.9M133.6,373.2c0.7-1,1.4-2.1,2-3.2l12.1-20"/>

	<path fill="#0094D7" d="M265.7,321.7c1.2,1.9,2.3,3.9,3.3,6c-3.2,3.3-8.9,6.3-17,9.1c-18.8,5.9-40.6,8.8-65.1,8.7c-16.5-0.1-27.7-1.7-33.5-4.7c-0.6-2.5-1.2-5-1.8-7.5c7.1,4.4,20.7,6.1,40.8,5.3C231,336.7,255.5,331.1,265.7,321.7zM177.7,283.9l3.1,13.2l19.2,11.7l25.5-26.1l5.1,6.1L200.3,318l-23.5-13.5l-16.2,13.3l-12.5-20.9l0.4-8.2l13,19.4l12.3-11.2l-1.6-12.3L177.7,283.9z"/>
	<path fill="#FCEDE4" d="M148.1,296.9l12.5,20.9l16.2-13.3l23.5,13.5l30.4-29.3c1.5,0.6,2.9,1.3,4.2,2.1c10.5,5.5,19.7,14.2,27.7,26.1c1,1.5,2,3.1,3,4.7c-10.2,9.4-34.6,15-73.3,16.9c-20,0.9-33.6-0.9-40.8-5.3c-0.4-1.6-0.9-3.1-1.3-4.7c-2.4-8.6-5.2-17.3-8.4-26.3L148.1,296.9z"/>
	<path fill="#FFFFFF" d="M234.9,290.9c19.4,1.7,36-1.1,49.8-8.5c11.2-5.9,18.1-3.5,20.6,7.1c0.8,8.6-7.8,16.5-25.9,23.9c12.9,12.1,10.8,19.7-6.1,22.6c8.3,17.1,14.1,33.6,17.5,49.4H159.4c-0.4-14-2.4-28.9-6-44.6c5.8,3,17,4.5,33.5,4.7c24.6,0.1,46.3-2.8,65.1-8.7c8.1-2.8,13.8-5.8,17-9.1c-1-2.1-2.2-4.1-3.3-6c-1-1.6-2-3.2-3-4.7C254.7,305.1,245.4,296.4,234.9,290.9zM148.6,288.8l23.7-4l1.6,12.3l-12.3,11.2L148.6,288.8zM177.7,283.9l42.7-7.4l5.1,6.1l-25.5,26.1L180.9,297L177.7,283.9zM269,327.8c0.4,0.8,0.7,1.5,1.1,2.1c1.1,2.1,2.2,4.1,3.1,6.1c-1-2-2-4.1-3.1-6.1C269.7,329.2,269.4,328.5,269,327.8z"/>

	<path fill="none" stroke="#2A2B2B" stroke-width="2.2341" stroke-linecap="round" stroke-linejoin="round" stroke-miterlimit="3" d="M148.1,296.9l-6.3,5.5c3.2,8.9,6,17.7,8.4,26.3c0.4,1.6,0.9,3.1,1.3,4.7c0.6,2.5,1.2,5,1.8,7.5M265.7,321.7c-1-1.6-2-3.2-3-4.7c-8-11.9-17.2-20.6-27.7-26.1c-1.3-0.8-2.8-1.5-4.2-2.1L200.3,318M160.6,317.8l-12.5-20.9M269,327.8c-1-2.1-2.2-4.1-3.3-6M148.6,288.8l-0.4,8.2M234.9,290.9c19.4,1.7,36-1.1,49.8-8.5c11.2-5.9,18.1-3.5,20.6,7.1c0.8,8.6-7.8,16.5-25.9,23.9c12.9,12.1,10.8,19.7-6.1,22.6c8.3,17.1,14.1,33.6,17.5,49.4H159.4c-0.4-14-2.4-28.9-6-44.6M177.7,283.9l-5.5,0.9l-23.7,4M230.7,288.8l-5.1-6.1l-5.1-6.1l-42.7,7.4M269,327.8c0.4,0.8,0.7,1.5,1.1,2.1c1.1,2.1,2.2,4.1,3.1,6.1"/>

	<path fill="none" stroke="#0094D7" stroke-width="3.3512" stroke-linecap="round" stroke-linejoin="round" stroke-miterlimit="3" d="M181.9,337.5c3.5,8.3,5.7,23.5,6.6,45.6M174.9,338.4c-3.9,9.8-8,23.6-12.3,41.4M187.8,311.7l-4.9,12.6M169.1,313.1l5.5,10.7"/>

	<polygon fill="#FCD13E" points="176.1,319.3 188.7,324.6 189.9,339.4 178.5,345.7 166.9,341.1 165.8,326.2"/>

	<polyline fill="none" stroke="#2A2B2B" stroke-width="2.2341" stroke-linecap="round" stroke-linejoin="round" stroke-miterlimit="3" points="160.6,317.8 176.8,304.5 200.3,318"/>

	<path fill="#D3D2B0" d="M141.7,79.4c4.2-8,13.7-9.1,28.6-3.5c21.2,9.8,37.6,25.1,49.3,45.9c0.6,1.3,1.1,2.7,1.6,4c-18.1-22.7-37.4-35.9-57.9-39.7C148.8,87.5,141.6,85.2,141.7,79.4z"/>
	<path fill="#FFFBDA" d="M219.5,121.9c-11.6-20.9-28-36.2-49.3-45.9c-14.9-5.7-24.4-4.5-28.6,3.5c0,5.8,7.1,8,21.6,6.8c20.6,3.8,39.9,17,57.9,39.7c8.3,22,7.6,43.4-2.1,64.3c-6.8-30.8-17.1-54.1-30.9-69.9c5.9,31.4-3.5,57.2-28,77.4c-26.4-18.6-37.1-43.2-31.9-73.8c-12.8,23.3-17.6,48.1-14.4,74.3c-14.6-22.5-17.1-45.6-7.5-69.4c2.1-3.5,4.3-7,6.6-10.4c-2.3,3.4-4.5,6.9-6.6,10.4c-26.7,45.1-29.3,93.8-7.6,146.3c-4.2-1.9-8.3-3.9-12.1-6c-39-22.4-50.3-62.9-33.8-121.3c17.8-45.5,42.6-68.2,74.5-68c-14.8-8-21.4-21-19.8-38.9c1.6-17.9,15.2-26.5,40.8-26c-14.1,7.5-22.6,18.6-25.5,33.3c-1.6,14.4,2.6,24.5,12.5,30.3c-1.3-11.3,7-17.8,24.9-19.4c38.3-2.7,70.2,10.9,95.8,40.9c24,31.1,32.6,67.9,25.9,110.4c-1.3,6-3.1,11.7-5.4,16.9c-9.1,19.8-25.8,33.2-50,40.1c12-23.1,16-49.7,12.1-80C235.8,161.4,229.4,139.6,219.5,121.9z"/>
	<path fill="#FCEDE4" d="M221.1,125.9c-0.5-1.3-1-2.7-1.6-4c9.9,17.7,16.3,39.5,19.1,65.3c3.9,30.2-0.1,56.9-12.1,80c24.3-6.9,41-20.3,50-40.1c7.9-4.9,14.7-3,20.6,5.8c5.6,9.8,5,20.1-1.7,30.9c-7.7,10.6-20.3,13-37.6,7.1c-13,10.9-28.9,18.5-47.7,23c-31.7,7.5-61.6,8.9-89.9,4c-24.5-4.2-35.7-13.8-33.6-28.9c3.8,2.2,7.8,4.2,12.1,6c-21.7-52.5-19.1-101.3,7.6-146.3c-9.6,23.8-7.1,46.9,7.5,69.4c-3.2-26.2,1.6-51,14.4-74.3c-5.1,30.6,5.5,55.2,31.9,73.8c24.6-20.3,33.9-46.1,28-77.4c13.9,15.9,24.2,39.2,30.9,69.9C228.8,169.3,229.5,147.9,221.1,125.9z"/>

	<path fill="none" stroke="#2A2B2B" stroke-width="2.2341" stroke-linecap="round" stroke-linejoin="round" stroke-miterlimit="3" d="M221.1,125.9c-0.5-1.3-1-2.7-1.6-4c-11.6-20.9-28-36.2-49.3-45.9c-14.9-5.7-24.4-4.5-28.6,3.5M86.6,269.1c-39-22.4-50.3-62.9-33.8-121.3c17.8-45.5,42.6-68.2,74.5-68c-14.8-8-21.4-21-19.8-38.9c1.6-17.9,15.2-26.5,40.8-26c-14.1,7.5-22.6,18.6-25.5,33.3c-1.6,14.4,2.6,24.5,12.5,30.3c-1.3-11.3,7-17.8,24.9-19.4c38.3-2.7,70.2,10.9,95.8,40.9c24,31.1,32.6,67.9,25.9,110.4c-1.3,6-3.1,11.7-5.4,16.9c7.9-4.9,14.7-3,20.6,5.8c5.6,9.8,5,20.1-1.7,30.9c-7.7,10.6-20.3,13-37.6,7.1c-13,10.9-28.9,18.5-47.7,23c-31.7,7.5-61.6,8.9-89.9,4C95.7,293.9,84.5,284.2,86.6,269.1c3.8,2.2,7.8,4.2,12.1,6c-21.7-52.5-19.1-101.3,7.6-146.3M112.8,118.4c-2.3,3.4-4.5,6.9-6.6,10.4c-9.6,23.8-7.1,46.9,7.5,69.4c-3.2-26.2,1.6-51,14.4-74.3c-5.1,30.6,5.5,55.2,31.9,73.8c24.6-20.3,33.9-46.1,28-77.4c13.9,15.9,24.2,39.2,30.9,69.9c9.7-20.9,10.4-42.4,2.1-64.3M219.5,121.9c9.9,17.7,16.3,39.5,19.1,65.3c3.9,30.2-0.1,56.9-12.1,80c24.3-6.9,41-20.3,50-40.1"/>

	<path fill="#0094D7" d="M215.5,320.4l3.7-7.9c13.3,4.4,24.7,11.8,34.4,22.3c-2.4,5.1-4.7,9.9-6.9,14.4c-7.6-8.3-16.3-14.1-26.1-17.4C218.9,327.8,217.2,324,215.5,320.4z"/>
	<path fill="#FFFFFF" d="M246.7,349.2c-6,12.1-11.5,22-16.5,29.6c-7.5,6-15.1,7.7-22.7,5.1c-7.6-2.5-13.1-9.6-16.4-21.5l-16.5-58.6c-6.5,0.5-12.1,0.4-16.9-0.4c-13.8-4.5-18.4-11.7-13.7-21.8c5.8-7.4,15.2-10.7,28-9.7c10.4,1.6,20.5,9.8,30.2,24.4c4.5,7,9,15,13.4,24.1c1.7,3.6,3.4,7.4,5,11.4C230.4,335.1,239.1,340.9,246.7,349.2zM220.5,331.8c2.8,6.6,5.4,13.5,8,20.8C226,345.3,223.3,338.3,220.5,331.8z"/>
	<path fill="#FAE9D8" d="M259.1,322.4c-1.9,4.3-3.7,8.5-5.5,12.4c-9.7-10.5-21.2-17.9-34.4-22.3l6.8-14.1L259.1,322.4z"/>
	<path fill="#FCEDE4" d="M259.1,322.4c-1.9,4.3-3.7,8.5-5.5,12.4c-9.7-10.5-21.2-17.9-34.4-22.3l6.8-14.1L259.1,322.4z"/>

	<path fill="none" stroke="#2A2B2B" stroke-width="2.2341" stroke-linecap="round" stroke-linejoin="round" stroke-miterlimit="3" d="M215.5,320.4c1.7,3.6,3.4,7.4,5,11.4c2.8,6.6,5.4,13.5,8,20.8M246.7,349.2c2.2-4.5,4.5-9.3,6.9-14.4M219.2,312.5l-3.7,7.9M246.7,349.2c-6,12.1-11.5,22-16.5,29.6c-7.5,6-15.1,7.7-22.7,5.1c-7.6-2.5-13.1-9.6-16.4-21.5l-16.5-58.6c-6.5,0.5-12.1,0.4-16.9-0.4c-13.8-4.5-18.4-11.7-13.7-21.8c5.8-7.4,15.2-10.7,28-9.7c10.4,1.6,20.5,9.8,30.2,24.4c4.5,7,9,15,13.4,24.1M219.2,312.5l6.8-14.1M259.1,322.4c-1.9,4.3-3.7,8.5-5.5,12.4"/>

	<path fill="#FFFFFF" d="M128.8,367.9l4.8,5.3c-7.1,10.2-16.1,14.3-27.1,12.2c-11.9-4.2-17.2-13.4-15.9-27.5c6.4-21.7,15-45.3,25.8-70.9c7.7-9.2,18.6-13.7,32.6-13.3c8.1,0.6,14,4.3,17.7,11.1c1.7,9.5-2.5,15.3-12.5,17.2c-1.7,0.5-3.5,0.9-5.4,1.1c-2.5,0.4-5,0.6-7.6,0.6L128.8,367.9zM141.2,303.6c-3.3-0.1-6.7-0.6-10.4-1.4C134.5,303,137.9,303.5,141.2,303.6z"/>

	<path fill="none" stroke="#2A2B2B" stroke-width="2.2341" stroke-linecap="round" stroke-linejoin="round" stroke-miterlimit="3" d="M133.6,373.2c-7.1,10.2-16.1,14.3-27.1,12.2c-11.9-4.2-17.2-13.4-15.9-27.5c6.4-21.7,15-45.3,25.8-70.9c7.7-9.2,18.6-13.7,32.6-13.3c8.1,0.6,14,4.3,17.7,11.1c1.7,9.5-2.5,15.3-12.5,17.2c-1.7,0.5-3.5,0.9-5.4,1.1c-2.5,0.4-5,0.6-7.6,0.6l-12.4,64.2M141.2,303.6c-3.3-0.1-6.7-0.6-10.4-1.4"/>

	<path fill="#FFFFFF" d="M138.4,229.2c-3,4.2-7.8,7.3-14.5,9.2c-11.2,2.8-19.1,1.3-23.9-4.5c-2.5-4.1-3.2-8.6-2.2-13.3l6.7-0.7c0,6,2.6,9,7.9,9c5.6-0.7,7.8-4.2,6.6-10.5l19.4-2C140.5,220.2,140.5,224.5,138.4,229.2zM230.1,225.8c-5.6,6.9-13.3,10.5-23.2,10.7c-9.4-0.7-15.6-4-18.8-9.8c-0.3-0.6-0.6-1.2-0.8-1.8c-0.2-0.6-0.4-1.1-0.6-1.7c-0.2-0.6-0.3-1.3-0.4-2c0-0.1,0-0.2-0.1-0.3c-0.1-1-0.2-1.9-0.2-2.9c0-0.1,0-0.2,0-0.2c0-1.3,0.1-2.7,0.4-4.1c0-0.2,0.1-0.4,0.1-0.6l1,0.1l5.6,0.3c-0.2,5.5,2.1,8.7,6.9,9.5c6.2,0.4,9.7-2.5,10.7-8.5l21.2,2.3C231.8,221,231.2,224,230.1,225.8z"/>
	<path fill="#F4B81B" d="M104.5,220l14.5-1.5c1.2,6.3-1,9.8-6.6,10.5C107.1,228.9,104.5,225.9,104.5,220zM193,213.5l17.7,0.9c-1,6.1-4.6,8.9-10.7,8.5C195.1,222.2,192.8,219,193,213.5z"/>

	<path fill="none" stroke="#2A2B2B" stroke-width="2.2341" stroke-linecap="round" stroke-linejoin="round" stroke-miterlimit="3" d="M138.4,216.5l-19.4,2c1.2,6.3-1,9.8-6.6,10.5c-5.3-0.1-7.9-3.1-7.9-9l-6.7,0.7M100,233.9c4.8,5.7,12.7,7.2,23.9,4.5c6.7-1.9,11.5-4.9,14.5-9.2M115.4,193.9c7.7,5.4,14.4,5.4,20.3,0M104.5,220l14.5-1.5M231.9,216.7l-21.2-2.3c-1,6.1-4.6,8.9-10.7,8.5c-4.8-0.8-7.2-4-6.9-9.5l-5.6-0.3M188.1,226.7c3.2,5.9,9.5,9.1,18.8,9.8c9.9-0.2,17.7-3.8,23.2-10.7M193,213.5l17.7,0.9M179.4,189.8c9.3,5.3,16.7,5.3,22.2,0M148.7,266.4c7.9,8.1,20.4,5.2,37.4-8.7"/>

	<path fill="#3ED2FF" d="M229.7,119.5c4.5-5.5,6.6-9.5,6.3-11.8c3.9,2.2,8.8,3.2,14.6,3.1c5.3,0.1,10.4,1.5,15.3,4.1c7.3,4.2,12,10.3,14.2,18.3c2.2,8.1,1.1,15.8-3.1,23c-4.2,7.3-10.3,12-18.3,14c-8,2.2-15.7,1.3-23-2.9c-7.2-4.1-11.8-10.2-13.8-18.4c-2.2-8-1.2-15.7,2.9-22.9C226.1,123.6,227.8,121.5,229.7,119.5z"/>

	<path fill="none" stroke="#2A2B2B" stroke-width="2.2341" stroke-linecap="round" stroke-linejoin="round" stroke-miterlimit="3" d="M229.7,119.5c4.5-5.5,6.6-9.5,6.3-11.8c3.9,2.2,8.8,3.2,14.6,3.1c5.3,0.1,10.4,1.5,15.3,4.1c7.3,4.2,12,10.3,14.2,18.3c2.2,8.1,1.1,15.8-3.1,23c-4.2,7.3-10.3,12-18.3,14c-8,2.2-15.7,1.3-23-2.9c-7.2-4.1-11.8-10.2-13.8-18.4c-2.2-8-1.2-15.7,2.9-22.9C226.1,123.6,227.8,121.5,229.7,119.5z"/>
</g>
</svg>
