<svg version="1.1" xmlns="http://www.w3.org/2000/svg" x="0px" y="0px" width="370px" height="370px" viewBox="100 140 400 510">
	<g fill="none" stroke="#24C7FC" stroke-width="16" stroke-linecap="round" stroke-linejoin="round">
		<path d="M257,224.6h104"/>
		<path d="M449.8,224.6c42.8,3.1,61.2,27.5,61.2,73.4v42.8v220.3c0,42.8-33.7,76.5-76.5,76.5H174.4c-49,0-73.4-24.5-73.4-76.5V340.9v-42.8c0-45.9,21.4-70.4,67.3-73.4"/>
		<path d="M452.9,224.6v-27.5c0-24.5-21.4-45.9-42.8-45.9H407c-12.2,0-24.5,3.1-33.7,12.2c-9.2,9.2-12.2,21.4-12.2,30.6v27.5v27.5c0,24.5,21.4,42.8,42.8,42.8h3.1"/>
		<path d="M257,224.6v27.5c0,24.5-15.3,42.8-45.9,42.8h-3.1c-24.5,0-42.8-21.4-42.8-42.8v-27.5"/>
		<path d="M101,340.9h410"/>
		<path d="M449.9,247c0,23.5-19,42.5-42.5,42.5l0,0c-23.5,0-42.5-19-42.5-42.5v-51.7c0-23.5,19-42.5,42.5-42.5l0,0c23.5,0,42.5,19,42.5,42.5V247z"/>
		<path d="M254.7,245.5c0,23.5-19,42.5-42.5,42.5l0,0c-23.5,0-42.5-19-42.5-42.5v-51.7c0-23.5,19-42.5,42.5-42.5l0,0c23.5,0,42.5,19,42.5,42.5V245.5z"/>
	</g>
	<g fill="#24C7FC">
		<path  d="M514.1,340.9v-42.8c0-45.9-21.4-70.4-61.2-73.4v27.5c0,12.2-6.1,21.4-12.2,30.6L410,295H407
			c-24.5,0-42.8-21.4-42.8-42.8v-27.5H257v27.5c0,12.2-6.1,21.4-15.3,30.6c-9.2,9.2-18.4,12.2-30.6,12.2h-3.1
			c-24.5,0-42.8-21.4-42.8-42.8v-27.5c-42.8,3.1-67.3,27.5-67.3,73.4v42.8H514.1z"/>
		<circle cx="180.5" cy="435.8" r="21.4"/>
		<circle cx="302.9" cy="435.8" r="21.4"/>
		<circle cx="428.4" cy="435.8" r="21.4"/>
		<circle cx="180.5" cy="539.8" r="21.4"/>
		<circle cx="302.9" cy="539.8" r="21.4"/>
		<circle cx="428.4" cy="539.8" r="21.4"/>
	</g>
</svg>
