<svg version="1.1" xmlns="http://www.w3.org/2000/svg" x="0px" y="0px" width="50px" height="50px" viewBox="10 10 60 60">
	<path fill="#FFFFFF" d="M42.9,40l0.1,0.2c2.1,2.1,4.2,2.1,6.4,0l6.1-6.2c2.2-2.2,2.2-4.3,0.1-6.4l-3.2-3.1c-2.1-2.2-4.3-2.2-6.5,0
		l-6.2,6.1c-2.1,2.1-2.1,4.3,0,6.4l0.1,0l2.4-2.4c-1.8,1.8-3.5,3.5-5.2,5.2l0-0.1c-2.2-2.1-4.3-2.1-6.4,0L24.5,46
		c-2.2,2.2-2.2,4.3,0,6.5l3.2,3.2c2.2,2.1,4.3,2.1,6.4,0l6.2-6.2c2.2-2.2,2.2-4.3,0-6.5L40,42.8L42.9,40z M42.3,34.7
		c-0.9-1.6,0.9-3,1.9-4c0.9-0.9,1.8-1.8,2.8-2.8c1.3-1.3,2.5-1.4,3.6-0.3l1.7,1.6c1.1,1.1,1,2.3-0.3,3.6c-1.3,1.3-2.5,2.5-3.8,3.8
		c-0.6,0.6-1.3,1.1-2.1,1.1c-0.7,0-0.6-0.3-1.1,0.2c-0.7,0.7-1.4,1.4-2,2.1c0.8-0.8,1.6-1.7,2.4-2.5c0.4-0.4,1-0.9,1.2-1.5
		c0.5-1.3-0.5-2.7-1.8-2.9C43.6,33.2,43,34,42.3,34.7z M37.5,45.3c0.9,1.6-0.9,3-1.9,4c-0.9,0.9-1.8,1.8-2.7,2.7
		c-1.3,1.3-2.5,1.4-3.6,0.3l-1.6-1.6c-1-1.1-0.9-2.3,0.4-3.6c0.9-0.9,1.7-1.7,2.6-2.6c1-1,2.4-2.8,4-2c-0.3,0.3-0.4,0.6-0.3,1
		c0,1.1,0.9,2.1,2,2L37.5,45.3z"/>
	<g fill="none" stroke="#2B2B2B" stroke-linecap="round" stroke-linejoin="round">
		<path d="M42.9,40l0.1,0.2c2.1,2.1,4.2,2.1,6.4,0
			l6.1-6.2c2.2-2.2,2.2-4.3,0.1-6.4l-3.2-3.1c-2.1-2.2-4.3-2.2-6.5,0l-6.2,6.1c-2.1,2.1-2.1,4.3,0,6.4l0.1,0c0.7-0.7,1.3-1.3,2-2
			c0.5-0.5,0.3-0.4,0.2-1.1c-0.1-0.9,0.5-1.7,1.1-2.3c1.3-1.3,2.5-2.5,3.8-3.8c1.3-1.3,2.5-1.4,3.6-0.3l1.7,1.6
			c1.1,1.1,1,2.3-0.3,3.6c-1.3,1.3-2.5,2.5-3.8,3.8c-0.6,0.6-1.3,1.1-2.1,1.1c-0.7,0-0.6-0.3-1.1,0.2C44.3,38.7,43.6,39.4,42.9,40"/>
		<path d="M42.9,40L40,42.8l0.2,0.2
			c2.2,2.1,2.2,4.3,0,6.5l-6.2,6.2c-2.1,2.1-4.3,2.1-6.4,0l-3.2-3.2c-2.2-2.1-2.2-4.3,0-6.5l6.1-6.2c2.1-2.1,4.3-2.1,6.4,0l0,0.1
			l2.8-2.8"/>
		<path d="M42.3,34.7c0.7-0.7,1.3-1.5,2.4-1.5
			c1.3,0.2,2.3,1.3,1.9,2.6c-0.2,0.7-0.8,1.2-1.3,1.7"/>
		<path d="M34.7,42.5c0.4-1,1.7-1.8,2.4-2.6"/>
		<path d="M37.5,45.3l-1.2,0.2c-1.1,0.1-1.9-0.9-2-2
			c0-0.4,0.1-0.7,0.3-1c-1.6-0.8-2.9,0.9-3.9,1.9c-0.9,0.9-1.8,1.8-2.7,2.7c-1.3,1.3-1.4,2.5-0.4,3.6l1.6,1.6c1.1,1.1,2.3,1,3.6-0.3
			c0.9-0.9,1.8-1.8,2.7-2.7C36.6,48.3,38.4,46.9,37.5,45.3"/>
		<path d="M37.5,45.3c0.8-0.8,1.7-1.7,2.5-2.5"/>
	</g>
</svg>
