<svg version="1.1" xmlns="http://www.w3.org/2000/svg"  x="0px" y="0px" width="50px" height="50px" viewBox="10 10 60 60">
	<path fill="#FFFFFF" d="M43.6,33.1c0-1.2,0.4-2.3,1.3-3.2c1.7-1.7,4.6-1.8,6.3,0c1.7,1.7,1.8,4.6,0,6.4c-1.7,1.8-4.6,1.7-6.3,0
		C44,35.4,43.6,34.4,43.6,33.1z M23.6,48.1l0.4-0.6l5.9-7.2c2.8-3.5,5.6-3.5,8.4,0l5.5,6.9l3.1-3.1c1.8-1.8,3.6-1.8,5.5,0l3.8,3.9
		l0.3,0.2V29.5c0-3.9-2-5.9-5.9-5.9H29.5c-3.9,0-5.9,2-5.9,5.9V48.1z"/>
<g fill="none" stroke="#2B2B2B" stroke-linecap="round" stroke-linejoin="round">
	<path d="M43.6,33.1c0-1.2,0.4-2.3,1.3-3.2
		c1.7-1.7,4.6-1.8,6.3,0c1.7,1.7,1.8,4.6,0,6.4c-1.7,1.8-4.6,1.7-6.3,0C44,35.4,43.6,34.4,43.6,33.1z"/>
	<path d="M23.6,48.1l0.4-0.6l5.9-7.2
		c2.8-3.5,5.6-3.5,8.4,0l5.5,6.9l3.1-3.1c1.8-1.8,3.6-1.8,5.5,0l3.8,3.9l0.3,0.2V29.5c0-3.9-2-5.9-5.9-5.9H29.5
		c-3.9,0-5.9,2-5.9,5.9V48.1"/>
	<path d="M23.6,48.1v2.5c0,3.9,2,5.9,5.9,5.9h21.1
		c3.9,0,5.9-2,5.9-5.9v-2.5"/>
</g>
</svg>
