<svg version="1.1" xmlns="http://www.w3.org/2000/svg" x="0px" y="0px" width="50px" height="50px" viewBox="10 10 60 60">
	<path fill="#FFFFFF" d="M33,30.5c-3.1,8.7-6.3,17.3-9.4,26c0,0,0,0.1-0.1,0.1c8.7-3.2,17.4-6.4,26-9.5c0.1,0,0.1,0,0.2-0.1
		c-1.7,0.4-3.6-0.9-5-1.8c-1.9-1.2-3.5-2.7-5.1-4.2c-1.6-1.6-3.2-3.3-4.5-5.2C34.3,34.4,32.7,32.4,33,30.5z"/>
	<g fill="none" stroke="#2B2B2B" stroke-linecap="round" stroke-linejoin="round" >
		<path d="M42.2,40.4c1.4-1.4,2.7-2.7,4.1-4.1
			c1.1-1,2.1-2.1,3.6-2.3c1.4-0.2,3.7,0.4,4.8-1c0.5-0.8,1.1-1.5,1.6-2.3"/>
		<path d="M46,37.6c1.2,1.3,7,8.3,3.6,9.5
			c-1.6,0.6-3.2,1.2-4.8,1.8c-5.8,2.1-11.5,4.2-17.3,6.3c-1.3,0.5-2.7,1-4,1.5c3.1-8.7,6.3-17.3,9.4-26c0.2-0.5,0.3-1.1,0.9-1.3
			c1.4-0.4,3.2,0.9,4.3,1.5c0-2.2-0.6-5.2-2.5-6.6"/>
		<path d="M49.8,47c-1.7,0.4-3.6-0.9-5-1.8
			c-1.9-1.2-3.5-2.7-5.1-4.2c-1.6-1.6-3.2-3.3-4.5-5.2c-1-1.4-2.5-3.5-2.2-5.3"/>
		<path d="M48.3,39.7c1.3-2,4.2-2.5,6.4-2.3
			c1.7,0.2,3.2,0.9,4.7,1.6"/>
		<path d="M38.2,31c-0.1,0.8-0.3,1.4-0.6,1.8"/>
	</g>
	<circle fill="#2B2B2B" cx="54.2" cy="43.7" r="1.6"/>
	<circle fill="#2B2B2B" cx="42.6" cy="24.5" r="1.6"/>
	<circle fill="none" stroke="#2B2B2B" stroke-miterlimit="10" cx="43.7" cy="30.7" r="2.1"/>
</svg>
