<svg version="1.1" xmlns="http://www.w3.org/2000/svg"  x="0px" y="0px" width="50px" height="50px" viewBox="10 10 60 60">
	<path fill="#FFFFFF" d="M52.3,51c0,2.9-1.4,4.3-4.3,4.3H32.1c-2.9,0-4.4-1.4-4.4-4.3V35.1c0-2.9,1.5-4.4,4.4-4.4H48
		c2.9,0,4.3,1.5,4.3,4.4V51z M56.5,53.6V32.5c0-3.9-2-5.9-5.9-5.9H29.5c-3.9,0-5.9,2-5.9,5.9v21.1c0,3.9,2,5.9,5.9,5.9h21.1
		C54.5,59.5,56.5,57.5,56.5,53.6z"/>
	<g fill="none" stroke="#2B2B2B" stroke-linecap="round" stroke-linejoin="round">
		<path d="M52.3,51c0,2.9-1.4,4.3-4.3,4.3H32.1
			c-2.9,0-4.4-1.4-4.4-4.3V35.1c0-2.9,1.5-4.4,4.4-4.4H48c2.9,0,4.3,1.5,4.3,4.4V51z"/>
		<path d="M56.5,53.6V32.5c0-3.9-2-5.9-5.9-5.9H29.5
			c-3.9,0-5.9,2-5.9,5.9v21.1c0,3.9,2,5.9,5.9,5.9h21.1C54.5,59.5,56.5,57.5,56.5,53.6"/>
		<path d="M31.9,20.5l3.5,5.8"/>
		<path d="M48.2,20.5l-3.5,5.8"/>
		<path fill="#FFFFFF" d="M45.2,42.8l-7.5-5.8v11.7L45.2,42.8z"/>
	</g>
</svg>
